<?xml version="1.0" encoding="UTF-8"?>
<!-- Created with Inkscape (http://www.inkscape.org/) -->
<svg width="1024" height="1024" version="1.1" viewBox="0 0 1024 1024" xmlns="http://www.w3.org/2000/svg">
 <g transform="matrix(1.1176 0 0 1.1176 -56.692 -3.5679)">
  <path d="m505.64 415.08c46.125 0 85.288-13.054 85.288-39.163 0-26.109-39.163-35.682-78.326-18.276-39.163-15.665-75.715-13.054-75.715 15.665s27.849 39.163 68.753 41.774z" fill="#e6b28c"/>
  <g fill="#fff">
   <ellipse cx="395.54" cy="305.03" rx="82.242" ry="78.761"/>
   <ellipse cx="624.43" cy="305.03" rx="82.242" ry="78.761"/>
   <rect x="322.88" y="604.85" width="389.02" height="214.96"/>
   <path d="m512.6 407.29 39.163 13.054s4.3514 47.866-37.422 46.125c-41.774-1.7406-46.125-46.995-46.125-46.995z"/>
  </g>
  <path d="m242.3 882.95c-38.23-5.0271-67.598-31.616-77.001-69.714-1.8907-7.6602-3.1061-444.67-1.2919-464.49 3.1893-34.845 26.235-65.335 56.492-74.739 5.8859-1.8295 6.0145-2.3019 2.1539-7.9143-42.805-62.227 38.17-135.34 96.908-87.494l5.6736 4.6212 2.6323-2.0973c94.322-75.153 278.93-75.395 368.46-0.48307l2.8264 2.365 5.6736-4.3604c61.089-46.949 139.35 24.898 95.987 88.119-2.9337 4.277-2.9918 6.2416-0.1847 6.2416 19.502 0 49.96 32.25 57.61 61l2.2616 8.5v465l-2.2989 8.5c-8.7492 32.35-32.265 55.762-65.142 64.856l-9.5586 2.6439-267.5 0.13131c-147.12 0.0722-270.29-0.23546-273.7-0.68372zm175.08-90.33c0.76956-0.61465 7.2908-23.572 14.492-51.016s13.333-50.139 13.627-50.433c1.4092-1.4092 3.2789 4.7241 15.495 50.832 7.2132 27.225 13.502 49.889 13.975 50.364 1.0546 1.0597 33.942 2.1266 37.56 1.2184 3.7417-0.93912 3.8211-1.1933 20.369-65.247 24.724-95.703 28.103-109.02 28.103-110.71 0-1.8759-39.322-2.5299-40.47-0.67301-0.32334 0.52318-6.1583 25.082-12.967 54.574s-12.653 53.897-12.988 54.232c-1.428 1.428-2.8953-3.6686-14.469-50.258-6.6952-26.95-12.846-51.362-13.668-54.25l-1.4946-5.25h-17.994c-17.705 0-18.009 0.036-18.965 2.25-0.53447 1.2375-7.0175 25.805-14.407 54.595s-13.7 52.61-14.023 52.933c-1.3914 1.3914-2.6619-2.8022-9.022-29.778-9.5365-40.449-18.456-75.987-19.614-78.151-0.91206-1.7042-2.5557-1.8492-20.954-1.8492-22.621 0-21.059-0.79232-18.022 9.1447 1.0683 3.4954 11.205 41.68 22.526 84.855 23.175 88.382 21.457 82.712 25.227 83.278 6.3484 0.95267 36.321 0.42773 37.683-0.65997zm168 0.0923c1.095-0.8007 3.5249-7.4571 6.478-17.746l4.7257-16.464 28.572-0.26511c22.114-0.20519 28.792 0.0208 29.546 1 0.53562 0.69581 3.1025 8.2401 5.7041 16.765s5.1716 15.95 5.7111 16.5c1.4716 1.5003 37.459 1.3218 38.974-0.19334 0.92445-0.92445-4.1721-17.936-22.619-75.5-13.097-40.869-25.677-80.157-27.955-87.307l-4.1428-13h-47.788l-5.6994 17.5c-49.719 152.66-51.231 157.55-49.14 158.84 2.2344 1.3809 35.724 1.2607 37.633-0.13507zm22.742-68.612c-1.6836-1.0665 15.405-60.098 17.398-60.098 2.0782 0 19.192 58.937 17.436 60.047-1.8524 1.1718-32.992 1.2168-34.834 0.0503zm-74.936-272.11c5.1748-5.7607 10.982-24.476 8.7276-28.125-0.88419-1.4306-22.006-8.9254-23.154-8.2159-1.3915 0.86-0.91829 42.131 0.48873 42.624 2.9748 1.044 10.337-2.2753 13.938-6.284zm-27.064 1.762c0.23612-8.073-0.33312-37.252-0.73984-37.924-0.46498-0.76762-21.208 5.9149-23.173 7.4653-2.8299 2.233 1.9503 21.077 6.8444 26.982 7.0614 8.5188 16.862 10.515 17.068 3.4767zm56.376-44.838c23.588-6.3529 21.322-34.092-3.7552-45.956-7.8131-3.6962-9.3122-3.6932-11.234 0.0228-11.27 21.795-59.63 22.563-69.875 1.1097-3.1046-6.5008-11.43-4.4733-22.5 5.4791-27.185 24.442-3.5004 47.236 34.626 33.326 21.379-7.8 22.341-7.8206 40.737-0.87514 22.865 8.6327 24.352 8.953 32 6.8933zm-146-40.48c80.746-21.511 55.983-147.3-26.479-134.5-79.92 12.4-80.732 120.88-1.0213 136.45 4.5075 0.88052 21.373-0.31158 27.5-1.9438zm-6.6204-46.226c-15.756-8.2309-16.27-32.715-0.88043-41.956 14.311-8.5937 32.453-0.99357 36.056 15.105 4.674 20.886-16.156 36.786-35.175 26.851zm235.63 45.738c64.54-19.761 64.856-109.09 0.4648-131.07-53.054-18.111-102.9 33.266-84.877 87.482 11.328 34.074 50.098 54.093 84.413 43.586zm-54.338-45.548c-9.0146-4.4922-13.931-13.723-12.856-24.139 3.1162-30.193 48.257-27.696 48.164 2.6641-0.0584 19.093-18.085 30.058-35.308 21.475z" fill="#6cd0d6"/>
  <path d="m242.3 882.95c-38.23-5.0271-67.598-31.616-77.001-69.714-1.8907-7.6602-3.1061-444.67-1.2919-464.49 3.1893-34.845 26.235-65.335 56.492-74.739 5.8859-1.8295 6.0145-2.3019 2.1539-7.9143-42.805-62.227 38.17-135.34 96.908-87.494l5.6736 4.6212 2.6323-2.0973c94.322-75.153 278.93-75.395 368.46-0.48307l2.8264 2.365 5.6736-4.3604c61.089-46.949 139.35 24.898 95.987 88.119-2.9337 4.277-2.9918 6.2416-0.1847 6.2416 19.502 0 49.96 32.25 57.61 61l2.2616 8.5v465l-2.2989 8.5c-8.7492 32.35-32.265 55.762-65.142 64.856l-9.5586 2.6439-267.5 0.13131c-147.12 0.0722-270.29-0.23546-273.7-0.68372zm175.08-90.33c0.76956-0.61465 7.2908-23.572 14.492-51.016s13.333-50.139 13.627-50.433c1.4092-1.4092 3.2789 4.7241 15.495 50.832 7.2132 27.225 13.502 49.889 13.975 50.364 1.0546 1.0597 33.942 2.1266 37.56 1.2184 3.7417-0.93912 3.8211-1.1933 20.369-65.247 24.724-95.703 28.103-109.02 28.103-110.71 0-1.8759-39.322-2.5299-40.47-0.67301-0.32334 0.52318-6.1583 25.082-12.967 54.574s-12.653 53.897-12.988 54.232c-1.428 1.428-2.8953-3.6686-14.469-50.258-6.6952-26.95-12.846-51.362-13.668-54.25l-1.4946-5.25h-17.994c-17.705 0-18.009 0.036-18.965 2.25-0.53447 1.2375-7.0175 25.805-14.407 54.595s-13.7 52.61-14.023 52.933c-1.3914 1.3914-2.6619-2.8022-9.022-29.778-9.5365-40.449-18.456-75.987-19.614-78.151-0.91206-1.7042-2.5557-1.8492-20.954-1.8492-22.621 0-21.059-0.79232-18.022 9.1447 1.0683 3.4954 11.205 41.68 22.526 84.855 23.175 88.382 21.457 82.712 25.227 83.278 6.3484 0.95267 36.321 0.42773 37.683-0.65997zm168 0.0923c1.095-0.8007 3.5249-7.4571 6.478-17.746l4.7257-16.464 28.572-0.26511c22.114-0.20519 28.792 0.0208 29.546 1 0.53562 0.69581 3.1025 8.2401 5.7041 16.765s5.1716 15.95 5.7111 16.5c1.4716 1.5003 37.459 1.3218 38.974-0.19334 0.92445-0.92445-4.1721-17.936-22.619-75.5-13.097-40.869-25.677-80.157-27.955-87.307l-4.1428-13h-47.788l-5.6994 17.5c-49.719 152.66-51.231 157.55-49.14 158.84 2.2344 1.3809 35.724 1.2607 37.633-0.13507zm22.742-68.612c-1.6836-1.0665 15.405-60.098 17.398-60.098 2.0782 0 19.192 58.937 17.436 60.047-1.8524 1.1718-32.992 1.2168-34.834 0.0503zm123.32-163.35c0.26643-1.2375 0.62852-9.45 0.80466-18.25 0.35236-17.604 1.5187-21.902 6.2672-23.094 4.4405-1.1145 6.8877 0.40156 12.74 7.8928 18.041 23.093 33.438 32.096 41.353 24.18 8.836-8.836-5.8733-29.902-39.608-56.723-7.9741-6.34-7.9388-6.0107-3.6429-33.98 13.542-88.167 9.0765-147.7-14.812-197.46-43.264-90.131-176.21-135.84-302.2-103.9-111.97 28.384-164.84 98.856-164.74 219.59 0.0282 33.083 0.43473 37.815 7.056 82.127 4.2731 28.597 4.3385 28.085-4.4486 34.858-35.428 27.306-49.979 50.397-36.236 57.504 8.3565 4.3213 19.94-3.0206 36.02-22.83 17.093-21.058 22.72-16.047 22.937 20.424 0.0346 5.8208 0.36292 10.883 0.72959 11.25 0.36666 0.36667 98.908 0.66667 218.98 0.66667h218.31zm-235.42-87.297c-16.628-4.6381-26.753-17.843-30.434-39.688l-1.182-7.0151-7.195-1.8272c-17.531-4.452-27.421-16.086-28.925-34.025l-0.55374-6.6051-5.8273 1.8137c-95.105 29.6-153.86-105.44-68.895-158.34 71.887-44.757 162.84 35.826 124.81 110.58-2.6589 5.2264-1.7369 5.5872 1.6796 0.6571 14.138-20.401 54.383-18.847 67.136 2.5917 2.2914 3.8522 2.2032 0.6714-0.11569-4.1739-41.283-86.261 72.896-164.54 140.46-96.304 64.613 65.257-4.3619 176.29-89.086 143.4-1.3398-0.52002-1.7189 0.47289-2.2831 5.9792-1.8588 18.143-14.983 33.004-31.194 35.323l-4.783 0.68419-1.2543 7.4442c-5.5274 32.805-30.24 48.461-62.354 39.503zm37.164-21.465c5.1748-5.7607 10.982-24.476 8.7276-28.125-0.88419-1.4306-22.006-8.9254-23.154-8.2159-1.3915 0.86-0.91829 42.131 0.48873 42.624 2.9748 1.044 10.337-2.2753 13.938-6.284zm-27.064 1.762c0.23612-8.073-0.33312-37.252-0.73984-37.924-0.46498-0.76762-21.208 5.9149-23.173 7.4653-2.8299 2.233 1.9503 21.077 6.8444 26.982 7.0614 8.5188 16.862 10.515 17.068 3.4767zm56.376-44.838c23.588-6.3529 21.322-34.092-3.7552-45.956-7.8131-3.6962-9.3122-3.6932-11.234 0.0228-11.27 21.795-59.63 22.563-69.875 1.1097-3.1046-6.5008-11.43-4.4733-22.5 5.4791-27.185 24.442-3.5004 47.236 34.626 33.326 21.379-7.8 22.341-7.8206 40.737-0.87514 22.865 8.6327 24.352 8.953 32 6.8933zm-146-40.48c80.746-21.511 55.983-147.3-26.479-134.5-79.92 12.4-80.732 120.88-1.0213 136.45 4.5075 0.88052 21.373-0.31158 27.5-1.9438zm-6.6204-46.226c-15.756-8.2309-16.27-32.715-0.88043-41.956 14.311-8.5937 32.453-0.99357 36.056 15.105 4.674 20.886-16.156 36.786-35.175 26.851zm235.63 45.738c64.54-19.761 64.856-109.09 0.4648-131.07-53.054-18.111-102.9 33.266-84.877 87.482 11.328 34.074 50.098 54.093 84.413 43.586zm-54.338-45.548c-9.0146-4.4922-13.931-13.723-12.856-24.139 3.1162-30.193 48.257-27.696 48.164 2.6641-0.0584 19.093-18.085 30.058-35.308 21.475zm-322.75-62.23 3.3662-6.6844-3.4737-3.9912c-20.358-23.392-1.2845-53.29 24.205-37.941l5.85 3.5227 5.3183-5.2523c6.3313-6.2527 6.4066-6.7709 1.5683-10.79-41.302-34.311-95.33 21.233-57.051 58.651 11.539 11.28 15.54 11.772 20.217 2.4855zm499.14 4.2627c45.603-27.406 10.362-94.234-37.611-71.323-15.334 7.323-17.071 10.378-9.9122 17.429l5.0358 4.9601 3.2142-1.9298c13.192-7.9204 20.307-8.6709 27.449-2.8953 11.751 9.5023 11.99 24.945 0.59308 38.26l-3.6627 4.2791 3.6593 7.3954c4.2628 8.6149 3.6252 8.3979 11.235 3.8249z" fill="#9261e1"/>
  <path d="m238.36 880.52c-35.244-6.3965-61.13-30.094-70.556-64.59l-2.3044-8.4332v-464l2.2559-8.5c7.4413-28.038 26.607-49.975 51.272-58.686 9.3704-3.3094 9.1912-2.7101 3.4102-11.406-40.978-61.64 41.294-134.79 96.724-85.996 5.5265 4.8646 5.9951 4.918 10.693 1.2188 92.244-72.631 261.52-74.339 359.99-3.6324 10.771 7.7342 8.7042 7.513 16.349 1.75 60.148-45.343 139.47 29.013 94.207 88.309-4.5649 5.9803-4.3538 6.7796 2.3457 8.8805 25.312 7.9378 45.437 29.451 53.458 57.147l2.2923 7.9153v234c0 224.78-0.0731 234.27-1.8551 240.84-9.4765 34.922-34.902 58.261-70.993 65.166-10.908 2.087-535.8 2.1074-547.29 0.0213zm181-87.774c0.77557-1.2375 6.8725-23.175 13.549-48.75s12.47-47.31 12.874-48.299c0.47783-1.1682 5.25 15.314 13.608 47 7.0797 26.84 13.278 49.587 13.774 50.549 1.3883 2.6953 40.698 2.6598 43.14-0.0389 1.9738-2.181 5.3777-14.266 19.494-69.211 6.0053-23.375 14.644-56.976 19.197-74.668 10.167-39.51 11.757-35.332-13.445-35.332-25.295 0-20.797-7.0585-35.051 55-6.3798 27.775-11.861 51.175-12.18 52s-6.5418-22.237-13.828-51.249c-7.2864-29.012-13.809-53.424-14.494-54.25-1.2856-1.5491-33.698-2.3225-37.423-0.89294-2.051 0.78705-2.1254 1.0547-22.203 79.892-3.6418 14.3-6.9189 26.33-7.2825 26.734s-3.072-9.4962-6.0186-22c-22.298-94.618-17.48-85.234-43.76-85.234-24.355 0-22.686-1.6407-17.436 17.146 2.2065 7.8949 10.389 38.654 18.183 68.354 7.7943 29.7 16.528 62.933 19.409 73.851s5.8659 20.249 6.6337 20.735c3.54 2.2415 41.758 1.0617 43.26-1.3354zm168.74-0.0783c0.58347-1.2806 2.9846-9.0431 5.3358-17.25l4.275-14.922 56.2-0.531 1.1476 4.2655c2.7696 10.294 8.1645 26.456 9.5254 28.536 1.4737 2.2526 1.6455 2.2684 21.699 2l20.213-0.27062 0.30881-3.189c0.32474-3.3535-52.673-170.78-55.414-175.06-1.4869-2.3215-45.68-3.627-49.105-1.4506-1.0712 0.68074-13.3 37.713-47.213 142.98-13.398 41.586-14.759 37.222 11.611 37.222h20.355zm20.896-70.377c0-0.38777 3.4018-12.2 7.5595-26.25 4.1577-14.05 7.7988-26.366 8.0913-27.37 0.78178-2.6832 17.323 47.936 17.344 53.075 4e-3 0.9497-3.9589 1.25-16.495 1.25-9.075 0-16.5-0.31727-16.5-0.70503zm122.76-159.54c0.55431-0.6875 1.1978-9.2392 1.43-19.004 0.68308-28.726 4.5808-31.022 20.462-12.051 18.629 22.253 31.118 28.686 39.474 20.331 9.0189-9.0189-6.8251-33.016-36.869-55.841-10.524-7.9954-10.321-6.7845-5.9033-35.13 17.022-109.23 5.6332-181.36-36.562-231.56-103.42-123.03-359.55-102.24-425.2 34.512-23.874 49.734-28.375 109.35-14.929 197.7 4.4148 29.01 5.2227 26.03-10.472 38.628-28.833 23.144-40.915 42.275-32.557 51.55 8.218 9.1192 21.463 2.1647 40.911-21.481 14.737-17.918 18.956-15.047 19.986 13.6 0.34582 9.6184 0.8028 18.05 1.0155 18.738 0.30785 0.99502 45.041 1.25 219.3 1.25 173.92 0 219.12-0.25688 219.92-1.25zm-234.26-90.095c-17.849-4.5966-28.428-18.523-31.26-41.149l-0.7404-5.9162-6.2065-1.256c-19.095-3.8642-30.294-17.741-30.294-37.538 0-3.6229-0.17631-3.8746-2.25-3.2118-85.592 27.353-152.07-73.333-91.838-139.08 65.311-71.29 179.72 1.8231 142.86 91.302-3.7584 9.1261-2.9077 10.166 2.85 3.4825 16.177-18.777 47.201-18.727 62.939 0.10165 6.161 7.3705 8.2456 6.1239 3.9466-2.3599-37.713-74.422 53.025-153.18 123.76-107.42 82.089 53.103 25.353 184.64-67.11 155.59-9.2775-2.9149-9.207-2.9514-9.72 5.0373-1.1249 17.515-12.532 30.828-29.377 34.284-6.2903 1.2907-6.3258 1.3426-8.3748 12.252-5.5034 29.301-29.134 43.628-59.193 35.887zm8.4749-15.125c1.6357-1.9709 0.33884-42.557-1.3573-42.478-0.61469 0.0285-6.0676 1.7475-12.118 3.82l-11 3.7681 0.12272 5.7826c0.36657 17.273 17.338 37.559 24.352 29.108zm23.636-1.6098c6.3915-3.9275 12.103-16.346 12.623-27.446l0.26613-5.6841-11.721-4.0914c-14.19-4.9532-12.566-7.1232-12.946 17.308-0.38679 24.921 0.6833 26.73 11.777 19.913zm32.889-47.009c23.588-6.3529 21.322-34.092-3.7552-45.956-7.8131-3.6962-9.3122-3.6932-11.234 0.0228-11.27 21.795-59.63 22.563-69.875 1.1097-3.1046-6.5008-11.43-4.4733-22.5 5.4791-27.185 24.442-3.5004 47.236 34.626 33.326 21.379-7.8 22.341-7.8206 40.737-0.87514 22.865 8.6327 24.352 8.953 32 6.8933zm-142-41.345c73.232-24.699 55.634-134.38-21.5-134-60.027 0.29455-91.443 67.695-53.268 114.28 16.063 19.603 49.199 28.342 74.768 19.718zm-5.5065-43.501c-26.012-7.9126-20.6-47.066 6.5065-47.066 16.938 0 28.629 17.787 22.047 33.543-4.4316 10.609-17.612 16.851-28.553 13.523zm226.42 45.435c51.464-10.903 70.831-75.097 34.404-114.04-33.091-35.375-90.221-27.893-111.18 14.559-26.156 52.975 19.157 111.69 76.779 99.479zm-45.419-45.435c-18.469-5.618-23.495-28.346-9.1367-41.317 13.265-11.984 35.414-4.2137 39.139 13.731 3.5658 17.177-13.286 32.671-30.002 27.586zm-327.08-62.642c4.9034-9.0907 4.9139-7.3464-0.0787-13.112-19.44-22.452-0.87341-50.729 23.451-35.716l5.9367 3.6644 13.15-13.15-3.9357-3.6163c-21.408-19.67-56.62-14.148-68.928 10.809-9.9391 20.155-1.0223 45.841 19.438 55.995 7.0475 3.4974 6.2634 3.8459 10.967-4.874zm497.16 5.0417c39.644-20.089 26.688-78.457-17.479-78.742-13.028-0.08395-34.59 10.278-34.59 16.623 0 3.9839 12.861 13.306 14.561 10.555 3.3192-5.3705 18.681-8.2699 24.613-4.6454 13.287 8.1184 14.153 23.877 2.1197 38.562l-3.6045 4.3988 2.7379 5.6421c5.5087 11.352 4.9596 10.993 11.642 7.607z" fill="#7535da"/>
  <path d="m319.76 864.97c-24.547-4.1334-45.257-23.667-48.735-45.967-0.64383-4.1288-1.0164-51.462-1.0212-129.75-5e-3 -79.794-0.35299-123.25-0.98726-123.25-0.53885 0-3.3514 1.8036-6.25 4.0079-19.796 15.055-45.499 10.141-54.967-10.508-9.1258-19.901 4.4557-45.601 38.447-72.752 9.9869-7.9772 9.7197-7.1623 7.296-22.248-9.9165-61.724-10.186-109.83-0.86561-154.5 4.1731-19.999 4.4382-17.991-2.8681-21.736-7.7109-3.9524-19.623-12.916-21.749-16.366-0.85989-1.3954-3.3133-5.1692-5.452-8.3862-40.186-60.447 42.043-131.58 96.596-83.561 5.4789 4.8228 5.955 4.8755 10.649 1.1797 92.764-73.04 262.21-74.471 360.81-3.0478 9.6263 6.9728 8.4602 6.7565 13.663 2.5343 44.504-36.115 110.31-4.9261 107.35 50.883-0.73889 13.955-7.5408 31.988-14.127 37.454-0.85547 0.70998-1.5554 1.8903-1.5554 2.623 0 1.775-10.709 10.362-18.159 14.56-10.924 6.156-10.309 4.7612-7.4305 16.863 10.24 43.049 11.164 87.524 2.9702 143-1.9089 12.925-3.7267 25.75-4.0395 28.5l-0.56877 5 7.864 6.1341c28.604 22.312 43.926 45.152 42.081 62.733-3.0347 28.927-32.43 39.695-57.709 21.139-2.6268-1.9282-5.0384-3.5059-5.3591-3.5059s-0.71716 56.812-0.88096 126.25c-0.28126 119.23-0.39968 126.56-2.1283 131.75-7.3429 22.063-24.829 36.655-49.073 40.949-7.0817 1.2543-376.36 1.2718-383.8 0.0182zm384.44-23.093c13.23-2.8095 22.324-10.36 25.72-21.353 2.0534-6.6481 2.0792-8.1179 2.0579-117.38-0.0378-194.41 0.17758-196.15 21.149-170.99 18.713 22.45 32.416 29.349 40.727 20.502 8.8451-9.4152-5.7929-32.551-35-55.317-12.96-10.102-12.467-6.6468-6.4042-44.838 20.324-128.03-6.6552-214.28-81.951-261.97-128.43-81.355-328.28-42.688-383.13 74.13-23.428 49.9-27.925 109.14-14.781 194.73 4.756 30.967 5.4372 27.987-9.0897 39.774-32.296 26.205-43.539 46.101-31.207 55.228 8.3792 6.202 21.337-1.3071 38.949-22.572 20.969-25.317 20.652-27.653 20.75 153.18 0.0639 118.43 0.39845 130.57 3.8092 138.28 4.1038 9.2774 13.54 16.526 24.244 18.624 6.9939 1.371 377.69 1.3391 384.16-0.033zm-199.7-368.89c-20.411-2.2753-33.397-15.395-36.608-36.987-1.6735-11.253-1.8959-11.603-7.8015-12.303-16.614-1.9677-28.471-14.638-29.716-31.754-0.29771-4.094-0.68544-7.9299-0.86164-8.5242-0.21062-0.71044-3.5215-0.24274-9.6668 1.3656-89.035 23.302-146.17-92.165-74.079-149.7 70.008-55.875 168.66 23.387 129.67 104.18-3.3947 7.0333-0.33575 7.019 6.2962-0.0295 16.66-17.706 44.931-17.657 60.753 0.10515 4.8801 5.4785 10.024 7.6204 8.1803 3.4059-39.551-90.389 61.134-169 132.19-103.21 64.712 59.912 7.6355 168.65-76.357 145.47-13.585-3.749-12.153-4.217-12.737 4.1636-1.2887 18.486-12.319 31.531-29.491 34.878-6.0945 1.1878-6.2407 1.2917-6.8039 4.838-5.5629 35.027-20.779 47.699-52.968 44.111zm2.5268-15.037c1.4727-2.7518 0.15485-42.943-1.428-43.55-1.8371-0.70498-23.892 7.1177-24.994 8.8654-1.5914 2.5229 0.93571 15.23 4.4708 22.48 5.0957 10.451 18.809 18.076 21.951 12.205zm23.39-1.7487c7.5699-5.2204 16.69-29.739 12.499-33.604-2.001-1.8449-22.912-8.8132-24.555-8.1826-1.9063 0.73151-2.0133 44.138-0.11088 44.955 2.414 1.0357 8.2892-0.4943 12.167-3.1685zm-39.598-52.33c21.844-7.859 20.67-7.9314 49.367 3.0426 39.618 15.15 57.592-26.771 19.314-45.047-7.7467-3.6989-10.523-3.6923-12.64 0.03-12.728 22.375-61.457 22.034-68.888-0.48331-1.4516-4.3984-4.1326-4.3474-13.576 0.25808-22.841 11.14-27.591 36.164-8.6782 45.721 9.1763 4.6369 13.683 4.1849 35.102-3.5208zm-77.634-33.37c44.521-9.1231 67.772-58.644 47.188-100.5-25.409-51.668-99.505-50.184-124.85 2.5-25.341 52.677 19.948 109.83 77.662 98.001zm-1.6846-48.869c-20.575-9.6638-14.677-42.007 7.9217-43.446 14.971-0.9533 24.828 8.2913 24.828 23.286 0 17.073-17.018 27.55-32.75 20.16zm236 47.026c50.055-16.308 64.437-77.682 27.015-115.28-45.894-46.109-121.76-12.347-118.24 52.623 2.4402 45.159 48.287 76.647 91.23 62.656zm-55.19-47.094c-8.7831-4.0893-14.147-14.359-12.627-24.175 4.3253-27.929 45.728-24.656 45.687 3.6111-0.0257 17.51-16.976 28.053-33.06 20.564zm-322.27-60.644 3.9349-7.8261-4.0138-4.6376c-7.9732-9.2123-10.197-16.693-7.6098-25.594 4.3262-14.882 18.14-18.064 32.988-7.5989l2.8398 2.0015 6.4102-6.3532c7.4572-7.3909 7.7014-8.5452 2.6602-12.571-44.342-35.407-100.23 19.761-60.87 60.081 12.306 12.605 18.263 13.234 23.661 2.4983zm499.59 4.2422c45.323-29.294 8.7838-97.199-39.815-73.991-16.744 7.9958-18.991 12.239-10.783 20.361l6.0317 5.9687 3.2183-1.9321c16.139-9.6892 25.041-8.9072 31.75 2.7888 5.4062 9.426 3.474 19.852-5.656 30.518l-3.6258 4.236 3.603 7.0043c1.9817 3.8524 3.8646 7.4275 4.1842 7.9447 1.1834 1.9148 5.3162 0.83496 11.092-2.8981z" fill="#302751"/>
  <path d="m318.04 863.47c-20.05-3.6278-36.94-17.757-44.287-37.05l-2.2547-5.9201-0.27561-127.75c-0.24095-111.69-0.4607-127.75-1.7477-127.75-0.80965 0-3.6567 1.5695-6.3267 3.4877-20.872 14.995-44.188 11.391-53.868-8.3264-9.7507-19.86 2.7615-44.532 36.218-71.416 12.572-10.102 11.722-7.1951 8.4015-28.745-9.0461-58.702-9.1187-107.41-0.22354-150 4.2827-20.505 4.8738-17.894-5.3385-23.573-38.129-21.203-47.606-68.494-19.867-99.136 23.708-26.188 64.19-29.18 90.537-6.6901 6.2929 5.3716 5.7246 5.3732 12.739-0.0376 94.252-72.707 266.74-72.857 360.93-0.31339 7.4448 5.7336 6.1507 5.725 13.072 0.0875 26.114-21.27 63.256-19.538 86.866 4.0514 30.964 30.938 22.809 79.994-16.957 102-7.4615 4.1297-8.7657 5.2209-8.367 7 7.9928 35.666 10.118 54.012 10.149 87.608 0.0261 28.511-0.55774 35.461-5.9883 71.287-4.4753 29.524-4.6292 27.358 2.2878 32.213 15.557 10.919 36.571 34.94 41.349 47.264 13.234 34.136-23.196 59.803-52.861 37.243-8.9931-6.839-8.2307-12.981-8.2216 66.242 0.0181 157.66-0.34418 182.47-2.7696 189.75-6.8635 20.591-24.92 35.147-48.304 38.941-10.533 1.709-375.31 1.2627-384.89-0.47087zm393.11-22.253c10.474-4.235 18.553-13.402 20.841-23.647 0.76036-3.4048 1.2157-45.806 1.4711-137 0.5021-179.25-0.46011-171.58 18.622-148.52 21.086 25.476 38.252 32.131 44.544 17.267 4.3311-10.232-10.602-31.336-36.762-51.955-12.896-10.164-12.45-8.5862-8.8478-31.318 14.114-89.062 11.009-144.85-10.94-196.54-68.074-160.3-377.08-164.05-452.93-5.5025-24.344 50.89-28.494 113.27-13.692 205.81 2.9961 18.732 3.2494 17.963-9.1463 27.755-32.367 25.569-44.898 47.03-33.204 56.87 8.8997 7.4886 22.087 0.23296 40.909-22.507 8.9912-10.863 10.389-11.853 14.007-9.9166 4.2634 2.2817 4.2594 2.1611 4.9492 150.49 0.52142 112.13 0.93298 142.84 1.9566 146 4.2643 13.159 12.384 20.81 25.572 24.099 3.9177 0.97677 46.344 1.2092 196 1.074l191-0.17264zm-211.9-369.73c-18.447-4.0072-32.251-23.04-32.251-44.466 0-2.3231-2.2186-3.4093-9-4.4065-15.566-2.2889-27-16.571-27-33.726 0-8.0942 0.0953-8.0533-11.263-4.8335-87.211 24.723-144.88-90.98-73.87-148.21 67.815-54.653 163.37 17.618 130.74 98.883-1.9139 4.7665-3.2564 9.0279-2.9834 9.4696 1.2964 2.0976 5.0609 0.42906 7.9143-3.5079 13.483-18.603 50.06-18.311 61.644 0.49217 2.2177 3.5996 3.4898 4.3164 6.8196 3.8423 2.4704-0.35171 2.4323-0.72622-0.79024-7.7607-39.801-86.882 71.478-162.33 137.35-93.127 59.388 62.397-1.2269 164.31-82.966 139.49-10.457-3.1753-10.287-3.2765-10.776 6.3781-0.88137 17.403-11.793 29.886-29.218 33.427-5.2966 1.0763-6.135 1.5569-6.3781 3.6562-4.1483 35.819-24.768 51.613-57.969 44.401zm8.4942-33.984c0.30515-27.356 1.2469-25.823-12.917-21.031-16.443 5.5627-15.198 4.4161-14.534 13.389 1.28 17.31 11.616 30.625 23.206 29.894l4-0.25219zm20.906 20.427c8.1644-3.9523 14.623-17.026 14.773-29.905l0.0754-6.4784-11-3.887c-17.396-6.1472-16.257-7.5372-16.4 20.012-0.1275 24.518 0.76805 25.963 12.552 20.258zm37.839-48.358c12.057-5.0379 17.756-18.818 12.537-30.316-5.781-12.736-28.624-25.801-32.387-18.524-11.567 22.369-61.195 23.181-67.807 1.1096-3.9558-13.203-33.442 7.6214-35.51 25.078-2.5643 21.651 17.096 28.881 47.676 17.532 19.994-7.4196 21.2-7.4333 39.5-0.44796 22.288 8.5076 27.153 9.2603 35.991 5.5678zm-144.66-40.812c71.821-25.604 56.854-133.36-18.96-136.49-77.191-3.1922-104.73 98.673-36.013 133.19 14.455 7.26 39.629 8.7722 54.973 3.3022zm-7.619-46.608c-23.673-8.3532-17.786-43.558 7.2844-43.558 13 0 22.5 9.7392 22.5 23.067 0 15.076-15.3 25.602-29.784 20.491zm229.32 48.313c43.85-11.319 65.001-58.103 44.835-99.169-24.493-49.877-95.447-53.214-123.15-5.7925-31.339 53.645 18.476 120.41 78.315 104.96zm-48.54-48.416c-20.874-7.1697-19.364-37.92 2.1152-43.073 28.146-6.7521 39.462 35.245 11.717 43.485-6.4774 1.9236-7.0871 1.9054-13.833-0.41144zm-325.09-59.622c5.0671-9.394 5.064-9.5426-0.3211-15.532-18.43-20.499 0.32972-47.937 22.503-32.913 5.96 4.0385 6.4389 3.926 13.628-3.1996 8.5274-8.4516 6.8903-12.01-9.2231-20.05-50.582-25.238-89.541 46.595-41.059 75.704 8.7039 5.2259 9.6286 4.9697 14.472-4.0096zm498.25 4.4094c49.947-26.621 11.467-99.906-39.849-75.892-15.896 7.4386-18.311 12.638-9.7917 21.081l6.522 6.464 2.728-1.6956c28.382-17.641 47.155 5.0076 26.139 31.535l-3.8225 4.8248 4.1784 8.4252c4.8347 9.7483 5.2064 9.889 13.895 5.2578z" fill="#181927"/>
 </g>
</svg>
